<mxfile host="app.diagrams.net" modified="2024-06-12T15:12:17.322Z" agent="Mozilla/5.0 (X11; Linux x86_64; rv:127.0) Gecko/20100101 Firefox/127.0" etag="iurUKrC8yEvQtb4vph7N" version="24.5.3" type="device">
  <diagram name="Page-1" id="61z-dl2jqZq5NF-Vf808">
    <mxGraphModel dx="1195" dy="684" grid="1" gridSize="10" guides="1" tooltips="1" connect="1" arrows="1" fold="1" page="1" pageScale="1" pageWidth="827" pageHeight="1169" math="0" shadow="0">
      <root>
        <mxCell id="0" />
        <mxCell id="1" parent="0" />
        <mxCell id="AYZxzGrRqgFVn0_Ld9h1-1" value="Movie" style="swimlane;fontStyle=1;align=center;verticalAlign=top;childLayout=stackLayout;horizontal=1;startSize=26;horizontalStack=0;resizeParent=1;resizeParentMax=0;resizeLast=0;collapsible=1;marginBottom=0;whiteSpace=wrap;html=1;" vertex="1" parent="1">
          <mxGeometry x="320" y="285" width="160" height="156" as="geometry" />
        </mxCell>
        <mxCell id="AYZxzGrRqgFVn0_Ld9h1-2" value="&lt;div&gt;- id: String&lt;/div&gt;" style="text;strokeColor=none;fillColor=none;align=left;verticalAlign=top;spacingLeft=4;spacingRight=4;overflow=hidden;rotatable=0;points=[[0,0.5],[1,0.5]];portConstraint=eastwest;whiteSpace=wrap;html=1;" vertex="1" parent="AYZxzGrRqgFVn0_Ld9h1-1">
          <mxGeometry y="26" width="160" height="26" as="geometry" />
        </mxCell>
        <mxCell id="AYZxzGrRqgFVn0_Ld9h1-5" value="- name: String" style="text;strokeColor=none;fillColor=none;align=left;verticalAlign=top;spacingLeft=4;spacingRight=4;overflow=hidden;rotatable=0;points=[[0,0.5],[1,0.5]];portConstraint=eastwest;whiteSpace=wrap;html=1;" vertex="1" parent="AYZxzGrRqgFVn0_Ld9h1-1">
          <mxGeometry y="52" width="160" height="26" as="geometry" />
        </mxCell>
        <mxCell id="AYZxzGrRqgFVn0_Ld9h1-8" value="- url: String" style="text;strokeColor=none;fillColor=none;align=left;verticalAlign=top;spacingLeft=4;spacingRight=4;overflow=hidden;rotatable=0;points=[[0,0.5],[1,0.5]];portConstraint=eastwest;whiteSpace=wrap;html=1;" vertex="1" parent="AYZxzGrRqgFVn0_Ld9h1-1">
          <mxGeometry y="78" width="160" height="26" as="geometry" />
        </mxCell>
        <mxCell id="AYZxzGrRqgFVn0_Ld9h1-7" value="- rating: double" style="text;strokeColor=none;fillColor=none;align=left;verticalAlign=top;spacingLeft=4;spacingRight=4;overflow=hidden;rotatable=0;points=[[0,0.5],[1,0.5]];portConstraint=eastwest;whiteSpace=wrap;html=1;" vertex="1" parent="AYZxzGrRqgFVn0_Ld9h1-1">
          <mxGeometry y="104" width="160" height="26" as="geometry" />
        </mxCell>
        <mxCell id="AYZxzGrRqgFVn0_Ld9h1-6" value="- plot: String" style="text;strokeColor=none;fillColor=none;align=left;verticalAlign=top;spacingLeft=4;spacingRight=4;overflow=hidden;rotatable=0;points=[[0,0.5],[1,0.5]];portConstraint=eastwest;whiteSpace=wrap;html=1;" vertex="1" parent="AYZxzGrRqgFVn0_Ld9h1-1">
          <mxGeometry y="130" width="160" height="26" as="geometry" />
        </mxCell>
        <mxCell id="AYZxzGrRqgFVn0_Ld9h1-69" style="edgeStyle=orthogonalEdgeStyle;rounded=0;orthogonalLoop=1;jettySize=auto;html=1;exitX=0;exitY=0.5;exitDx=0;exitDy=0;entryX=1;entryY=0.5;entryDx=0;entryDy=0;endArrow=none;endFill=0;" edge="1" parent="1" source="AYZxzGrRqgFVn0_Ld9h1-11" target="AYZxzGrRqgFVn0_Ld9h1-2">
          <mxGeometry relative="1" as="geometry" />
        </mxCell>
        <mxCell id="AYZxzGrRqgFVn0_Ld9h1-70" value="1 .. n" style="edgeLabel;html=1;align=center;verticalAlign=middle;resizable=0;points=[];" vertex="1" connectable="0" parent="AYZxzGrRqgFVn0_Ld9h1-69">
          <mxGeometry x="-0.6064" relative="1" as="geometry">
            <mxPoint y="-11" as="offset" />
          </mxGeometry>
        </mxCell>
        <mxCell id="AYZxzGrRqgFVn0_Ld9h1-71" value="1 .. n" style="edgeLabel;html=1;align=center;verticalAlign=middle;resizable=0;points=[];" vertex="1" connectable="0" parent="AYZxzGrRqgFVn0_Ld9h1-69">
          <mxGeometry x="0.7671" relative="1" as="geometry">
            <mxPoint x="10" y="-14" as="offset" />
          </mxGeometry>
        </mxCell>
        <mxCell id="AYZxzGrRqgFVn0_Ld9h1-90" style="edgeStyle=orthogonalEdgeStyle;rounded=0;orthogonalLoop=1;jettySize=auto;html=1;exitX=0.5;exitY=0;exitDx=0;exitDy=0;entryX=1;entryY=0.5;entryDx=0;entryDy=0;endArrow=none;endFill=0;" edge="1" parent="1" source="AYZxzGrRqgFVn0_Ld9h1-11" target="AYZxzGrRqgFVn0_Ld9h1-49">
          <mxGeometry relative="1" as="geometry" />
        </mxCell>
        <mxCell id="AYZxzGrRqgFVn0_Ld9h1-91" value="1 .. n" style="edgeLabel;html=1;align=center;verticalAlign=middle;resizable=0;points=[];" vertex="1" connectable="0" parent="AYZxzGrRqgFVn0_Ld9h1-90">
          <mxGeometry x="0.8193" y="1" relative="1" as="geometry">
            <mxPoint y="-14" as="offset" />
          </mxGeometry>
        </mxCell>
        <mxCell id="AYZxzGrRqgFVn0_Ld9h1-92" value="1 .. n" style="edgeLabel;html=1;align=center;verticalAlign=middle;resizable=0;points=[];" vertex="1" connectable="0" parent="AYZxzGrRqgFVn0_Ld9h1-90">
          <mxGeometry x="-0.8147" y="-1" relative="1" as="geometry">
            <mxPoint as="offset" />
          </mxGeometry>
        </mxCell>
        <mxCell id="AYZxzGrRqgFVn0_Ld9h1-11" value="Actor" style="swimlane;fontStyle=1;align=center;verticalAlign=top;childLayout=stackLayout;horizontal=1;startSize=26;horizontalStack=0;resizeParent=1;resizeParentMax=0;resizeLast=0;collapsible=1;marginBottom=0;whiteSpace=wrap;html=1;" vertex="1" parent="1">
          <mxGeometry x="550" y="285" width="160" height="52" as="geometry" />
        </mxCell>
        <mxCell id="AYZxzGrRqgFVn0_Ld9h1-16" value="- height: double" style="text;strokeColor=none;fillColor=none;align=left;verticalAlign=top;spacingLeft=4;spacingRight=4;overflow=hidden;rotatable=0;points=[[0,0.5],[1,0.5]];portConstraint=eastwest;whiteSpace=wrap;html=1;" vertex="1" parent="AYZxzGrRqgFVn0_Ld9h1-11">
          <mxGeometry y="26" width="160" height="26" as="geometry" />
        </mxCell>
        <mxCell id="AYZxzGrRqgFVn0_Ld9h1-22" value="Director" style="swimlane;fontStyle=1;align=center;verticalAlign=top;childLayout=stackLayout;horizontal=1;startSize=26;horizontalStack=0;resizeParent=1;resizeParentMax=0;resizeLast=0;collapsible=1;marginBottom=0;whiteSpace=wrap;html=1;" vertex="1" parent="1">
          <mxGeometry x="550" y="380" width="160" height="52" as="geometry" />
        </mxCell>
        <mxCell id="AYZxzGrRqgFVn0_Ld9h1-31" value="&amp;nbsp;" style="text;strokeColor=none;fillColor=none;align=left;verticalAlign=top;spacingLeft=4;spacingRight=4;overflow=hidden;rotatable=0;points=[[0,0.5],[1,0.5]];portConstraint=eastwest;whiteSpace=wrap;html=1;" vertex="1" parent="AYZxzGrRqgFVn0_Ld9h1-22">
          <mxGeometry y="26" width="160" height="26" as="geometry" />
        </mxCell>
        <mxCell id="AYZxzGrRqgFVn0_Ld9h1-62" style="edgeStyle=orthogonalEdgeStyle;rounded=0;orthogonalLoop=1;jettySize=auto;html=1;exitX=0.5;exitY=0;exitDx=0;exitDy=0;endArrow=none;endFill=0;" edge="1" parent="1" source="AYZxzGrRqgFVn0_Ld9h1-26" target="AYZxzGrRqgFVn0_Ld9h1-1">
          <mxGeometry relative="1" as="geometry" />
        </mxCell>
        <mxCell id="AYZxzGrRqgFVn0_Ld9h1-63" value="1 .. n" style="edgeLabel;html=1;align=center;verticalAlign=middle;resizable=0;points=[];" vertex="1" connectable="0" parent="AYZxzGrRqgFVn0_Ld9h1-62">
          <mxGeometry x="0.7532" y="1" relative="1" as="geometry">
            <mxPoint as="offset" />
          </mxGeometry>
        </mxCell>
        <mxCell id="AYZxzGrRqgFVn0_Ld9h1-64" value="1 .. n" style="edgeLabel;html=1;align=center;verticalAlign=middle;resizable=0;points=[];" vertex="1" connectable="0" parent="AYZxzGrRqgFVn0_Ld9h1-62">
          <mxGeometry x="-0.6623" y="2" relative="1" as="geometry">
            <mxPoint as="offset" />
          </mxGeometry>
        </mxCell>
        <mxCell id="AYZxzGrRqgFVn0_Ld9h1-26" value="Genre" style="swimlane;fontStyle=1;align=center;verticalAlign=top;childLayout=stackLayout;horizontal=1;startSize=26;horizontalStack=0;resizeParent=1;resizeParentMax=0;resizeLast=0;collapsible=1;marginBottom=0;whiteSpace=wrap;html=1;" vertex="1" parent="1">
          <mxGeometry x="320" y="529" width="160" height="78" as="geometry" />
        </mxCell>
        <mxCell id="AYZxzGrRqgFVn0_Ld9h1-27" value="- id: String" style="text;strokeColor=none;fillColor=none;align=left;verticalAlign=top;spacingLeft=4;spacingRight=4;overflow=hidden;rotatable=0;points=[[0,0.5],[1,0.5]];portConstraint=eastwest;whiteSpace=wrap;html=1;" vertex="1" parent="AYZxzGrRqgFVn0_Ld9h1-26">
          <mxGeometry y="26" width="160" height="26" as="geometry" />
        </mxCell>
        <mxCell id="AYZxzGrRqgFVn0_Ld9h1-37" value="- name: String" style="text;strokeColor=none;fillColor=none;align=left;verticalAlign=top;spacingLeft=4;spacingRight=4;overflow=hidden;rotatable=0;points=[[0,0.5],[1,0.5]];portConstraint=eastwest;whiteSpace=wrap;html=1;" vertex="1" parent="AYZxzGrRqgFVn0_Ld9h1-26">
          <mxGeometry y="52" width="160" height="26" as="geometry" />
        </mxCell>
        <mxCell id="AYZxzGrRqgFVn0_Ld9h1-78" style="edgeStyle=orthogonalEdgeStyle;rounded=0;orthogonalLoop=1;jettySize=auto;html=1;exitX=1;exitY=0.5;exitDx=0;exitDy=0;entryX=0;entryY=0.5;entryDx=0;entryDy=0;endArrow=none;endFill=0;" edge="1" parent="1" source="AYZxzGrRqgFVn0_Ld9h1-33" target="AYZxzGrRqgFVn0_Ld9h1-77">
          <mxGeometry relative="1" as="geometry" />
        </mxCell>
        <mxCell id="AYZxzGrRqgFVn0_Ld9h1-79" value="1 .. n" style="edgeLabel;html=1;align=center;verticalAlign=middle;resizable=0;points=[];" vertex="1" connectable="0" parent="AYZxzGrRqgFVn0_Ld9h1-78">
          <mxGeometry x="0.7867" y="1" relative="1" as="geometry">
            <mxPoint x="-10" y="-12" as="offset" />
          </mxGeometry>
        </mxCell>
        <mxCell id="AYZxzGrRqgFVn0_Ld9h1-80" value="1 .. 1" style="edgeLabel;html=1;align=center;verticalAlign=middle;resizable=0;points=[];" vertex="1" connectable="0" parent="AYZxzGrRqgFVn0_Ld9h1-78">
          <mxGeometry x="-0.7867" relative="1" as="geometry">
            <mxPoint x="10" y="-15" as="offset" />
          </mxGeometry>
        </mxCell>
        <mxCell id="AYZxzGrRqgFVn0_Ld9h1-33" value="Country" style="swimlane;fontStyle=1;align=center;verticalAlign=top;childLayout=stackLayout;horizontal=1;startSize=26;horizontalStack=0;resizeParent=1;resizeParentMax=0;resizeLast=0;collapsible=1;marginBottom=0;whiteSpace=wrap;html=1;" vertex="1" parent="1">
          <mxGeometry x="550" y="494" width="160" height="104" as="geometry" />
        </mxCell>
        <mxCell id="AYZxzGrRqgFVn0_Ld9h1-34" value="- id: String" style="text;strokeColor=none;fillColor=none;align=left;verticalAlign=top;spacingLeft=4;spacingRight=4;overflow=hidden;rotatable=0;points=[[0,0.5],[1,0.5]];portConstraint=eastwest;whiteSpace=wrap;html=1;" vertex="1" parent="AYZxzGrRqgFVn0_Ld9h1-33">
          <mxGeometry y="26" width="160" height="26" as="geometry" />
        </mxCell>
        <mxCell id="AYZxzGrRqgFVn0_Ld9h1-88" value="- name: String" style="text;strokeColor=none;fillColor=none;align=left;verticalAlign=top;spacingLeft=4;spacingRight=4;overflow=hidden;rotatable=0;points=[[0,0.5],[1,0.5]];portConstraint=eastwest;whiteSpace=wrap;html=1;" vertex="1" parent="AYZxzGrRqgFVn0_Ld9h1-33">
          <mxGeometry y="52" width="160" height="26" as="geometry" />
        </mxCell>
        <mxCell id="AYZxzGrRqgFVn0_Ld9h1-87" value="- url: String" style="text;strokeColor=none;fillColor=none;align=left;verticalAlign=top;spacingLeft=4;spacingRight=4;overflow=hidden;rotatable=0;points=[[0,0.5],[1,0.5]];portConstraint=eastwest;whiteSpace=wrap;html=1;" vertex="1" parent="AYZxzGrRqgFVn0_Ld9h1-33">
          <mxGeometry y="78" width="160" height="26" as="geometry" />
        </mxCell>
        <mxCell id="AYZxzGrRqgFVn0_Ld9h1-38" value="Person" style="swimlane;fontStyle=1;align=center;verticalAlign=top;childLayout=stackLayout;horizontal=1;startSize=26;horizontalStack=0;resizeParent=1;resizeParentMax=0;resizeLast=0;collapsible=1;marginBottom=0;whiteSpace=wrap;html=1;" vertex="1" parent="1">
          <mxGeometry x="800" y="285" width="160" height="130" as="geometry" />
        </mxCell>
        <mxCell id="AYZxzGrRqgFVn0_Ld9h1-39" value="- id: String" style="text;strokeColor=none;fillColor=none;align=left;verticalAlign=top;spacingLeft=4;spacingRight=4;overflow=hidden;rotatable=0;points=[[0,0.5],[1,0.5]];portConstraint=eastwest;whiteSpace=wrap;html=1;" vertex="1" parent="AYZxzGrRqgFVn0_Ld9h1-38">
          <mxGeometry y="26" width="160" height="26" as="geometry" />
        </mxCell>
        <mxCell id="AYZxzGrRqgFVn0_Ld9h1-40" value="- identity: String" style="text;strokeColor=none;fillColor=none;align=left;verticalAlign=top;spacingLeft=4;spacingRight=4;overflow=hidden;rotatable=0;points=[[0,0.5],[1,0.5]];portConstraint=eastwest;whiteSpace=wrap;html=1;" vertex="1" parent="AYZxzGrRqgFVn0_Ld9h1-38">
          <mxGeometry y="52" width="160" height="26" as="geometry" />
        </mxCell>
        <mxCell id="AYZxzGrRqgFVn0_Ld9h1-41" value="- birthDate: LocalDate" style="text;strokeColor=none;fillColor=none;align=left;verticalAlign=top;spacingLeft=4;spacingRight=4;overflow=hidden;rotatable=0;points=[[0,0.5],[1,0.5]];portConstraint=eastwest;whiteSpace=wrap;html=1;" vertex="1" parent="AYZxzGrRqgFVn0_Ld9h1-38">
          <mxGeometry y="78" width="160" height="26" as="geometry" />
        </mxCell>
        <mxCell id="AYZxzGrRqgFVn0_Ld9h1-89" value="- url: String" style="text;strokeColor=none;fillColor=none;align=left;verticalAlign=top;spacingLeft=4;spacingRight=4;overflow=hidden;rotatable=0;points=[[0,0.5],[1,0.5]];portConstraint=eastwest;whiteSpace=wrap;html=1;" vertex="1" parent="AYZxzGrRqgFVn0_Ld9h1-38">
          <mxGeometry y="104" width="160" height="26" as="geometry" />
        </mxCell>
        <mxCell id="AYZxzGrRqgFVn0_Ld9h1-81" style="edgeStyle=orthogonalEdgeStyle;rounded=0;orthogonalLoop=1;jettySize=auto;html=1;exitX=0.5;exitY=0;exitDx=0;exitDy=0;endArrow=none;endFill=0;" edge="1" parent="1" source="AYZxzGrRqgFVn0_Ld9h1-44" target="AYZxzGrRqgFVn0_Ld9h1-38">
          <mxGeometry relative="1" as="geometry" />
        </mxCell>
        <mxCell id="AYZxzGrRqgFVn0_Ld9h1-82" value="1 .. n" style="edgeLabel;html=1;align=center;verticalAlign=middle;resizable=0;points=[];" vertex="1" connectable="0" parent="AYZxzGrRqgFVn0_Ld9h1-81">
          <mxGeometry x="0.763" relative="1" as="geometry">
            <mxPoint as="offset" />
          </mxGeometry>
        </mxCell>
        <mxCell id="AYZxzGrRqgFVn0_Ld9h1-83" value="1 .. 1" style="edgeLabel;html=1;align=center;verticalAlign=middle;resizable=0;points=[];" vertex="1" connectable="0" parent="AYZxzGrRqgFVn0_Ld9h1-81">
          <mxGeometry x="-0.6691" relative="1" as="geometry">
            <mxPoint as="offset" />
          </mxGeometry>
        </mxCell>
        <mxCell id="AYZxzGrRqgFVn0_Ld9h1-44" value="Location" style="swimlane;fontStyle=1;align=center;verticalAlign=top;childLayout=stackLayout;horizontal=1;startSize=26;horizontalStack=0;resizeParent=1;resizeParentMax=0;resizeLast=0;collapsible=1;marginBottom=0;whiteSpace=wrap;html=1;" vertex="1" parent="1">
          <mxGeometry x="800" y="481" width="160" height="104" as="geometry" />
        </mxCell>
        <mxCell id="AYZxzGrRqgFVn0_Ld9h1-45" value="- id: String" style="text;strokeColor=none;fillColor=none;align=left;verticalAlign=top;spacingLeft=4;spacingRight=4;overflow=hidden;rotatable=0;points=[[0,0.5],[1,0.5]];portConstraint=eastwest;whiteSpace=wrap;html=1;" vertex="1" parent="AYZxzGrRqgFVn0_Ld9h1-44">
          <mxGeometry y="26" width="160" height="26" as="geometry" />
        </mxCell>
        <mxCell id="AYZxzGrRqgFVn0_Ld9h1-77" value="- city: String" style="text;strokeColor=none;fillColor=none;align=left;verticalAlign=top;spacingLeft=4;spacingRight=4;overflow=hidden;rotatable=0;points=[[0,0.5],[1,0.5]];portConstraint=eastwest;whiteSpace=wrap;html=1;" vertex="1" parent="AYZxzGrRqgFVn0_Ld9h1-44">
          <mxGeometry y="52" width="160" height="26" as="geometry" />
        </mxCell>
        <mxCell id="AYZxzGrRqgFVn0_Ld9h1-76" value="- region: String" style="text;strokeColor=none;fillColor=none;align=left;verticalAlign=top;spacingLeft=4;spacingRight=4;overflow=hidden;rotatable=0;points=[[0,0.5],[1,0.5]];portConstraint=eastwest;whiteSpace=wrap;html=1;" vertex="1" parent="AYZxzGrRqgFVn0_Ld9h1-44">
          <mxGeometry y="78" width="160" height="26" as="geometry" />
        </mxCell>
        <mxCell id="AYZxzGrRqgFVn0_Ld9h1-65" style="edgeStyle=orthogonalEdgeStyle;rounded=0;orthogonalLoop=1;jettySize=auto;html=1;exitX=0.5;exitY=1;exitDx=0;exitDy=0;endArrow=none;endFill=0;" edge="1" parent="1" source="AYZxzGrRqgFVn0_Ld9h1-48" target="AYZxzGrRqgFVn0_Ld9h1-1">
          <mxGeometry relative="1" as="geometry" />
        </mxCell>
        <mxCell id="AYZxzGrRqgFVn0_Ld9h1-66" value="1 .. n" style="edgeLabel;html=1;align=center;verticalAlign=middle;resizable=0;points=[];" vertex="1" connectable="0" parent="AYZxzGrRqgFVn0_Ld9h1-65">
          <mxGeometry x="-0.878" relative="1" as="geometry">
            <mxPoint as="offset" />
          </mxGeometry>
        </mxCell>
        <mxCell id="AYZxzGrRqgFVn0_Ld9h1-67" value="1 .. n" style="edgeLabel;html=1;align=center;verticalAlign=middle;resizable=0;points=[];" vertex="1" connectable="0" parent="AYZxzGrRqgFVn0_Ld9h1-65">
          <mxGeometry x="0.7778" relative="1" as="geometry">
            <mxPoint as="offset" />
          </mxGeometry>
        </mxCell>
        <mxCell id="AYZxzGrRqgFVn0_Ld9h1-48" value="Role" style="swimlane;fontStyle=1;align=center;verticalAlign=top;childLayout=stackLayout;horizontal=1;startSize=26;horizontalStack=0;resizeParent=1;resizeParentMax=0;resizeLast=0;collapsible=1;marginBottom=0;whiteSpace=wrap;html=1;" vertex="1" parent="1">
          <mxGeometry x="320" y="110" width="160" height="78" as="geometry" />
        </mxCell>
        <mxCell id="AYZxzGrRqgFVn0_Ld9h1-49" value="- id: String" style="text;strokeColor=none;fillColor=none;align=left;verticalAlign=top;spacingLeft=4;spacingRight=4;overflow=hidden;rotatable=0;points=[[0,0.5],[1,0.5]];portConstraint=eastwest;whiteSpace=wrap;html=1;" vertex="1" parent="AYZxzGrRqgFVn0_Ld9h1-48">
          <mxGeometry y="26" width="160" height="26" as="geometry" />
        </mxCell>
        <mxCell id="AYZxzGrRqgFVn0_Ld9h1-68" value="- characterName: String" style="text;strokeColor=none;fillColor=none;align=left;verticalAlign=top;spacingLeft=4;spacingRight=4;overflow=hidden;rotatable=0;points=[[0,0.5],[1,0.5]];portConstraint=eastwest;whiteSpace=wrap;html=1;" vertex="1" parent="AYZxzGrRqgFVn0_Ld9h1-48">
          <mxGeometry y="52" width="160" height="26" as="geometry" />
        </mxCell>
        <mxCell id="AYZxzGrRqgFVn0_Ld9h1-52" value="Language" style="swimlane;fontStyle=1;align=center;verticalAlign=top;childLayout=stackLayout;horizontal=1;startSize=26;horizontalStack=0;resizeParent=1;resizeParentMax=0;resizeLast=0;collapsible=1;marginBottom=0;whiteSpace=wrap;html=1;" vertex="1" parent="1">
          <mxGeometry x="30" y="337" width="160" height="78" as="geometry" />
        </mxCell>
        <mxCell id="AYZxzGrRqgFVn0_Ld9h1-53" value="- id: String" style="text;strokeColor=none;fillColor=none;align=left;verticalAlign=top;spacingLeft=4;spacingRight=4;overflow=hidden;rotatable=0;points=[[0,0.5],[1,0.5]];portConstraint=eastwest;whiteSpace=wrap;html=1;" vertex="1" parent="AYZxzGrRqgFVn0_Ld9h1-52">
          <mxGeometry y="26" width="160" height="26" as="geometry" />
        </mxCell>
        <mxCell id="AYZxzGrRqgFVn0_Ld9h1-58" value="- name: String" style="text;strokeColor=none;fillColor=none;align=left;verticalAlign=top;spacingLeft=4;spacingRight=4;overflow=hidden;rotatable=0;points=[[0,0.5],[1,0.5]];portConstraint=eastwest;whiteSpace=wrap;html=1;" vertex="1" parent="AYZxzGrRqgFVn0_Ld9h1-52">
          <mxGeometry y="52" width="160" height="26" as="geometry" />
        </mxCell>
        <mxCell id="AYZxzGrRqgFVn0_Ld9h1-56" style="edgeStyle=orthogonalEdgeStyle;rounded=0;orthogonalLoop=1;jettySize=auto;html=1;exitX=1;exitY=0.5;exitDx=0;exitDy=0;entryX=0;entryY=0.5;entryDx=0;entryDy=0;" edge="1" parent="1" source="AYZxzGrRqgFVn0_Ld9h1-16" target="AYZxzGrRqgFVn0_Ld9h1-39">
          <mxGeometry relative="1" as="geometry" />
        </mxCell>
        <mxCell id="AYZxzGrRqgFVn0_Ld9h1-57" style="edgeStyle=orthogonalEdgeStyle;rounded=0;orthogonalLoop=1;jettySize=auto;html=1;exitX=1;exitY=0.5;exitDx=0;exitDy=0;entryX=0;entryY=0.5;entryDx=0;entryDy=0;" edge="1" parent="1" source="AYZxzGrRqgFVn0_Ld9h1-31" target="AYZxzGrRqgFVn0_Ld9h1-41">
          <mxGeometry relative="1" as="geometry" />
        </mxCell>
        <mxCell id="AYZxzGrRqgFVn0_Ld9h1-59" style="edgeStyle=orthogonalEdgeStyle;rounded=0;orthogonalLoop=1;jettySize=auto;html=1;exitX=1;exitY=0.5;exitDx=0;exitDy=0;entryX=0;entryY=0.5;entryDx=0;entryDy=0;endArrow=none;endFill=0;" edge="1" parent="1" source="AYZxzGrRqgFVn0_Ld9h1-53" target="AYZxzGrRqgFVn0_Ld9h1-8">
          <mxGeometry relative="1" as="geometry" />
        </mxCell>
        <mxCell id="AYZxzGrRqgFVn0_Ld9h1-60" value="1 .. 1" style="edgeLabel;html=1;align=center;verticalAlign=middle;resizable=0;points=[];" vertex="1" connectable="0" parent="AYZxzGrRqgFVn0_Ld9h1-59">
          <mxGeometry x="-0.6795" y="2" relative="1" as="geometry">
            <mxPoint y="-11" as="offset" />
          </mxGeometry>
        </mxCell>
        <mxCell id="AYZxzGrRqgFVn0_Ld9h1-61" value="1 .. n" style="edgeLabel;html=1;align=center;verticalAlign=middle;resizable=0;points=[];" vertex="1" connectable="0" parent="AYZxzGrRqgFVn0_Ld9h1-59">
          <mxGeometry x="0.4681" relative="1" as="geometry">
            <mxPoint x="15" y="-16" as="offset" />
          </mxGeometry>
        </mxCell>
        <mxCell id="AYZxzGrRqgFVn0_Ld9h1-72" style="edgeStyle=orthogonalEdgeStyle;rounded=0;orthogonalLoop=1;jettySize=auto;html=1;exitX=0;exitY=0.5;exitDx=0;exitDy=0;endArrow=none;endFill=0;" edge="1" parent="1" source="AYZxzGrRqgFVn0_Ld9h1-22">
          <mxGeometry relative="1" as="geometry">
            <mxPoint x="480" y="406" as="targetPoint" />
          </mxGeometry>
        </mxCell>
        <mxCell id="AYZxzGrRqgFVn0_Ld9h1-73" value="0 .. n" style="edgeLabel;html=1;align=center;verticalAlign=middle;resizable=0;points=[];" vertex="1" connectable="0" parent="AYZxzGrRqgFVn0_Ld9h1-72">
          <mxGeometry x="-0.6655" relative="1" as="geometry">
            <mxPoint y="-16" as="offset" />
          </mxGeometry>
        </mxCell>
        <mxCell id="AYZxzGrRqgFVn0_Ld9h1-74" value="0 .. n" style="edgeLabel;html=1;align=center;verticalAlign=middle;resizable=0;points=[];" vertex="1" connectable="0" parent="AYZxzGrRqgFVn0_Ld9h1-72">
          <mxGeometry x="0.8684" relative="1" as="geometry">
            <mxPoint x="15" y="-16" as="offset" />
          </mxGeometry>
        </mxCell>
        <mxCell id="AYZxzGrRqgFVn0_Ld9h1-84" style="edgeStyle=orthogonalEdgeStyle;rounded=0;orthogonalLoop=1;jettySize=auto;html=1;exitX=0.25;exitY=0;exitDx=0;exitDy=0;entryX=0.775;entryY=1;entryDx=0;entryDy=0;entryPerimeter=0;endArrow=none;endFill=0;" edge="1" parent="1" source="AYZxzGrRqgFVn0_Ld9h1-44" target="AYZxzGrRqgFVn0_Ld9h1-6">
          <mxGeometry relative="1" as="geometry" />
        </mxCell>
        <mxCell id="AYZxzGrRqgFVn0_Ld9h1-85" value="1 .. n" style="edgeLabel;html=1;align=center;verticalAlign=middle;resizable=0;points=[];" vertex="1" connectable="0" parent="AYZxzGrRqgFVn0_Ld9h1-84">
          <mxGeometry x="0.9615" y="1" relative="1" as="geometry">
            <mxPoint as="offset" />
          </mxGeometry>
        </mxCell>
        <mxCell id="AYZxzGrRqgFVn0_Ld9h1-86" value="1 .. n" style="edgeLabel;html=1;align=center;verticalAlign=middle;resizable=0;points=[];" vertex="1" connectable="0" parent="AYZxzGrRqgFVn0_Ld9h1-84">
          <mxGeometry x="-0.9523" relative="1" as="geometry">
            <mxPoint as="offset" />
          </mxGeometry>
        </mxCell>
      </root>
    </mxGraphModel>
  </diagram>
</mxfile>
